<?xml version="1.0" standalone="no"?>
<!DOCTYPE svg PUBLIC "-//W3C//DTD SVG 20010904//EN"
 "http://www.w3.org/TR/2001/REC-SVG-20010904/DTD/svg10.dtd">
<svg version="1.0" xmlns="http://www.w3.org/2000/svg"
 width="1080.000000pt" height="1080.000000pt" viewBox="0 0 1080.000000 1080.000000"
 preserveAspectRatio="xMidYMid meet">
<metadata>
Created by potrace 1.14, written by Peter Selinger 2001-2017
</metadata>
<g transform="translate(0.000000,1080.000000) scale(0.100000,-0.100000)"
fill="#000000" stroke="none">
<path d="M5271 7120 c-35 -5 -78 -14 -94 -20 -17 -5 -41 -10 -54 -10 -16 0
-22 -4 -17 -12 5 -8 2 -9 -11 -4 -24 9 -87 -12 -79 -26 4 -7 2 -8 -4 -4 -15 9
-129 -44 -211 -99 -130 -87 -321 -306 -325 -372 0 -11 -4 -19 -8 -17 -3 2 -21
-32 -40 -77 l-33 -82 -93 7 c-51 4 -159 18 -240 31 -548 93 -801 106 -993 49
-89 -27 -161 -121 -122 -160 19 -19 43 -2 43 30 0 55 58 86 195 106 166 23
421 5 795 -59 129 -22 285 -44 345 -50 182 -17 372 12 496 74 27 14 49 23 49
19 0 -3 -20 -85 -45 -182 -55 -219 -95 -427 -95 -500 0 -77 18 -129 61 -174
31 -33 42 -38 81 -38 70 0 113 39 186 169 l43 76 -8 -55 c-18 -126 5 -190 68
-190 36 0 43 11 75 110 52 166 182 446 240 517 l23 28 1 -32 c0 -36 -19 -131
-57 -283 -34 -139 -37 -266 -7 -307 12 -15 31 -29 43 -31 18 -3 27 9 62 85 76
166 245 430 263 412 3 -3 -5 -68 -19 -145 -37 -206 -33 -259 21 -309 34 -32
93 -33 140 -5 31 20 80 88 154 214 49 83 135 173 194 203 96 49 182 45 641
-32 562 -94 865 -97 998 -9 43 28 72 84 62 121 -9 37 -35 24 -54 -27 -21 -59
-74 -87 -192 -100 -205 -24 -391 -9 -834 66 -270 46 -353 57 -455 58 -103 1
-131 -2 -162 -18 -85 -42 -157 -126 -267 -309 -73 -121 -98 -149 -130 -145
-26 3 -26 3 -25 93 1 61 11 134 33 228 34 150 37 187 19 205 -63 63 -225 -109
-374 -398 -26 -52 -39 -69 -41 -55 -2 11 24 130 57 264 71 290 75 337 29 362
-30 16 -92 -25 -138 -91 -52 -74 -137 -246 -196 -395 -26 -66 -52 -127 -57
-135 -16 -26 0 63 49 271 28 120 43 206 39 222 -4 16 -17 29 -36 36 -56 19
-65 6 -95 -141 -36 -181 -175 -445 -257 -489 -49 -26 -65 45 -49 214 16 165
96 550 132 635 8 21 15 23 62 21 89 -5 127 0 127 15 0 17 -43 26 -120 26 l-58
0 10 36 c12 45 3 55 -50 56 -48 0 -62 -7 -62 -31 0 -71 -243 -168 -397 -159
l-51 3 13 37 c9 27 9 38 1 42 -7 3 -7 5 1 5 7 1 10 8 7 16 -9 21 6 41 18 24 6
-10 7 -7 3 10 -5 15 -3 21 3 17 6 -3 14 -1 18 5 5 8 3 9 -6 4 -10 -6 -12 -4
-7 8 4 10 2 17 -5 17 -7 0 -6 5 2 15 10 12 16 13 28 3 13 -11 14 -11 8 0 -9
15 12 44 26 36 6 -4 4 4 -3 17 -12 23 -11 23 6 9 11 -9 16 -10 11 -2 -4 7 0
19 8 28 9 9 13 21 9 27 -4 7 0 8 11 4 9 -4 15 -3 12 2 -3 4 1 17 9 27 13 16
16 17 25 4 5 -8 10 -11 10 -6 0 5 -8 18 -17 29 -10 11 -12 17 -5 13 7 -4 12
-2 12 5 0 7 7 4 16 -7 8 -10 13 -14 10 -8 -6 12 21 41 39 44 6 1 9 8 7 17 -2
10 1 12 9 7 8 -5 10 -3 5 5 -5 8 0 14 13 18 11 3 18 9 15 14 -3 5 2 9 11 9 9
0 13 5 9 11 -4 8 0 8 15 0 25 -14 45 -5 37 15 -3 8 1 14 10 14 8 0 12 5 9 11
-4 6 -1 9 6 8 22 -4 69 19 75 36 4 10 11 12 18 7 6 -5 26 -3 46 4 28 10 31 13
15 17 -12 3 -10 4 7 2 15 -1 25 2 22 7 -3 4 4 8 15 8 12 0 21 5 21 10 0 6 17
10 38 11 30 0 33 2 17 9 -18 8 -17 9 8 9 16 1 38 -4 50 -11 19 -9 20 -9 10 3
-9 12 -5 14 25 14 21 1 64 4 97 8 110 13 130 14 142 4 7 -5 36 -10 65 -10 29
-1 55 -5 58 -8 10 -13 50 -20 50 -10 0 6 9 11 21 11 11 0 18 -4 15 -9 -3 -5 1
-11 9 -15 8 -3 15 -1 15 4 0 6 9 1 20 -10 11 -11 27 -20 36 -20 8 0 12 -4 9
-10 -3 -6 1 -7 10 -4 13 6 11 10 -12 25 -36 24 -23 25 17 1 16 -10 27 -22 23
-26 -4 -4 1 -4 11 0 15 6 17 4 11 -7 -8 -12 -6 -12 8 0 15 12 17 12 11 -3 -4
-9 -3 -16 2 -14 5 1 23 -6 41 -15 44 -23 55 -21 16 3 -18 11 -33 26 -33 33 0
11 -63 44 -100 52 -47 11 -70 17 -97 26 -30 9 -65 16 -128 25 -69 10 -214 12
-274 4z m288 -26 c10 -9 -35 -3 -49 6 -11 8 -7 9 15 4 17 -4 32 -8 34 -10z
m61 -9 c11 -13 10 -14 -4 -9 -9 3 -16 10 -16 15 0 13 6 11 20 -6z m-795 -165
c3 -5 1 -10 -4 -10 -6 0 -11 5 -11 10 0 6 2 10 4 10 3 0 8 -4 11 -10z m-109
-82 c5 -7 3 -8 -6 -3 -8 5 -18 1 -27 -10 -7 -11 -13 -14 -13 -9 0 12 21 34 31
34 4 0 11 -5 15 -12z m-166 -182 c0 -2 -8 -10 -17 -17 -16 -13 -17 -12 -4 4
13 16 21 21 21 13z"/>
<path d="M5420 7086 c0 -2 7 -7 16 -10 8 -3 12 -2 9 4 -6 10 -25 14 -25 6z"/>
<path d="M5100 7040 c-9 -6 -10 -10 -3 -10 6 0 15 5 18 10 8 12 4 12 -15 0z"/>
<path d="M5881 7016 c2 -2 15 -9 29 -15 24 -11 24 -11 6 3 -16 13 -49 24 -35
12z"/>
<path d="M5940 6936 c7 -7 13 -7 20 0 6 6 3 10 -10 10 -13 0 -16 -4 -10 -10z"/>
<path d="M5978 6923 c6 -2 9 -10 6 -15 -4 -7 -2 -8 5 -4 13 9 5 26 -12 25 -9
0 -8 -2 1 -6z"/>
<path d="M6010 6890 c8 -5 20 -10 25 -10 6 0 3 5 -5 10 -8 5 -19 10 -25 10 -5
0 -3 -5 5 -10z"/>
<path d="M6111 6805 c66 -67 91 -86 49 -37 -36 41 -100 102 -107 102 -4 0 22
-29 58 -65z"/>
<path d="M6220 6680 c12 -16 24 -30 26 -30 3 0 -4 14 -16 30 -12 17 -24 30
-26 30 -3 0 4 -13 16 -30z"/>
<path d="M6307 6534 c15 -30 29 -50 31 -45 3 10 -46 101 -54 101 -2 0 8 -25
23 -56z"/>
<path d="M6345 6469 c-4 -6 -5 -12 -2 -15 2 -3 7 2 10 11 7 17 1 20 -8 4z"/>
<path d="M6358 6448 c-3 -7 -1 -24 3 -38 6 -21 7 -19 6 13 0 39 -2 45 -9 25z"/>
<path d="M4440 5720 c8 -5 11 -10 6 -10 -5 0 -3 -6 3 -13 6 -8 7 -18 3 -22 -4
-5 -1 -4 7 0 11 6 13 4 7 -11 -6 -15 -5 -17 5 -6 10 9 10 15 1 24 -7 7 -12 20
-12 30 0 11 -7 18 -17 18 -15 0 -16 -2 -3 -10z"/>
<path d="M6361 5648 c-7 -24 -26 -69 -42 -102 -23 -45 -27 -61 -18 -72 6 -8
17 -14 23 -13 7 0 6 2 -1 6 -7 2 -13 9 -13 15 0 6 7 8 15 4 12 -4 13 -2 6 12
-6 12 -5 23 4 35 7 10 15 14 17 10 3 -4 3 -2 2 4 -5 19 21 74 30 66 5 -5 5 2
2 14 -6 18 -3 21 11 19 13 -3 18 3 19 20 2 19 -3 24 -20 24 -18 0 -25 -9 -35
-42z"/>
<path d="M4495 5591 c-3 -5 -2 -12 3 -15 5 -3 9 1 9 9 0 17 -3 19 -12 6z"/>
<path d="M6249 5433 c-19 -27 -36 -52 -38 -57 -2 -6 -17 -21 -32 -34 -16 -13
-26 -29 -22 -34 3 -6 2 -8 -4 -5 -14 9 -95 -62 -87 -75 4 -6 2 -8 -3 -5 -6 4
-34 -9 -63 -28 -118 -80 -321 -157 -441 -170 -88 -8 -226 -6 -294 5 -131 21
-339 98 -397 148 -9 8 -22 11 -29 6 -7 -4 -10 -3 -6 3 8 13 -50 56 -66 49 -7
-2 -4 -5 6 -5 10 -1 15 -5 12 -11 -3 -5 0 -10 7 -10 7 0 19 -9 26 -20 7 -11
16 -20 22 -20 5 0 37 -19 72 -43 35 -24 71 -42 81 -39 9 2 17 -1 17 -7 0 -6
10 -11 21 -11 17 0 19 -3 10 -14 -10 -12 -8 -13 9 -9 14 4 20 1 18 -7 -2 -7 4
-15 12 -17 12 -4 12 -3 1 5 -11 8 -11 10 0 15 11 4 11 6 1 6 -7 1 -10 6 -7 11
9 15 37 -9 28 -24 -4 -8 -3 -8 6 0 10 9 19 8 39 -2 15 -8 33 -14 40 -14 6 0
12 -4 12 -10 0 -14 27 -13 32 1 3 9 10 8 28 -1 14 -7 58 -13 102 -13 50 -1 74
-4 66 -10 -9 -6 -6 -7 7 -2 28 10 157 26 163 20 2 -2 17 2 33 10 33 18 53 19
44 4 -4 -5 15 3 42 20 26 17 50 26 51 21 5 -14 33 -12 30 1 -2 6 10 12 25 13
16 1 31 6 35 11 4 6 21 11 37 13 24 2 27 0 15 -8 -13 -10 -13 -11 0 -7 8 2 16
9 16 15 1 7 3 15 4 20 1 4 2 10 1 14 0 4 11 3 25 -2 14 -6 23 -6 20 -1 -4 5 0
11 6 14 8 2 9 8 4 13 -5 5 -11 4 -13 -3 -3 -7 -9 -13 -15 -13 -6 0 -5 6 2 15
7 9 21 13 31 10 24 -8 76 20 84 45 4 11 11 17 17 14 7 -5 9 -1 5 9 -4 11 -2
14 9 10 10 -4 12 0 7 13 -4 11 -3 15 5 10 6 -3 23 5 38 19 14 13 30 22 34 20
5 -3 6 5 3 17 -4 23 -4 23 12 3 11 -12 15 -14 13 -5 -10 30 64 136 85 123 5
-3 4 4 -2 16 -7 11 -13 21 -14 21 -2 0 -19 -21 -38 -47z m-190 -237 c-2 -2
-15 -9 -29 -15 -24 -11 -24 -11 -6 3 16 13 49 24 35 12z"/>
<path d="M4617 5395 c6 -11 27 -36 46 -55 20 -19 33 -39 30 -45 -4 -5 -3 -7 2
-3 4 4 19 -4 32 -18 13 -15 26 -25 28 -23 1 2 -31 40 -73 84 -41 44 -70 71
-65 60z"/>
<path d="M6247 5386 c-4 -10 -1 -13 8 -9 8 3 12 9 9 14 -7 12 -11 11 -17 -5z"/>
<path d="M4610 5326 c0 -2 8 -10 18 -17 15 -13 16 -12 3 4 -13 16 -21 21 -21
13z"/>
<path d="M6169 5273 c-13 -16 -12 -17 4 -4 9 7 17 15 17 17 0 8 -8 3 -21 -13z"/>
<path d="M4675 5260 c10 -11 20 -20 23 -20 3 0 -3 9 -13 20 -10 11 -20 20 -23
20 -3 0 3 -9 13 -20z"/>
<path d="M5740 5046 c0 -2 7 -7 16 -10 8 -3 12 -2 9 4 -6 10 -25 14 -25 6z"/>
<path d="M6277 4623 c-38 -155 -85 -350 -97 -408 -6 -27 -13 -58 -16 -67 -5
-15 2 -18 43 -18 l48 0 34 145 c19 79 37 142 41 140 4 -2 35 -76 70 -165 35
-88 67 -160 70 -160 4 0 65 146 131 315 11 28 14 21 48 -120 l36 -150 48 -3
c26 -2 47 -1 47 1 0 3 -110 467 -136 577 -6 24 -7 23 -25 -15 -10 -22 -46
-111 -81 -197 -34 -87 -64 -158 -68 -158 -3 0 -39 84 -79 188 -41 103 -77 190
-81 195 -3 4 -18 -41 -33 -100z"/>
<path d="M4996 4563 c-36 -148 -91 -376 -100 -415 -4 -15 3 -18 43 -18 l48 0
33 138 c18 75 35 140 39 145 4 4 36 -67 72 -158 35 -90 67 -165 71 -165 3 0
36 77 73 170 37 94 69 169 71 167 2 -1 15 -52 29 -112 47 -201 39 -185 90
-185 25 0 45 5 45 10 0 6 -18 86 -40 178 -23 92 -53 217 -67 277 -15 61 -30
114 -33 118 -8 9 -11 2 -105 -232 -34 -84 -64 -149 -67 -145 -3 5 -38 93 -78
197 -41 103 -77 187 -80 187 -3 0 -23 -71 -44 -157z"/>
<path d="M3440 4681 c-72 -25 -150 -107 -175 -182 -50 -149 41 -327 188 -369
59 -16 161 -9 209 14 53 26 110 84 139 142 35 71 34 179 -3 250 -70 133 -220
194 -358 145z m191 -97 c67 -34 117 -130 105 -203 -8 -48 -55 -121 -94 -144
-18 -10 -58 -21 -90 -24 -73 -6 -134 23 -176 84 -78 112 -16 271 118 304 38 9
102 1 137 -17z"/>
<path d="M5752 4685 c-83 -26 -152 -90 -190 -178 -19 -43 -15 -165 7 -213 25
-55 75 -109 130 -142 41 -24 56 -27 136 -27 103 0 145 16 206 82 74 77 99 167
75 262 -29 113 -96 185 -199 216 -61 18 -108 18 -165 0z m133 -86 c88 -24 145
-98 145 -189 0 -67 -18 -107 -68 -152 -94 -85 -250 -52 -306 66 -51 107 16
248 130 275 53 12 54 12 99 0z"/>
<path d="M7025 4687 c-93 -31 -150 -82 -187 -165 -23 -51 -26 -147 -7 -211 18
-61 95 -143 161 -171 73 -31 185 -25 251 13 168 99 198 326 60 463 -68 69
-190 100 -278 71z m175 -106 c80 -41 120 -155 86 -244 -48 -127 -209 -168
-308 -79 -50 45 -68 85 -68 153 0 151 152 240 290 170z"/>
<path d="M2800 4646 l0 -45 93 -3 92 -3 3 -232 2 -233 45 0 45 0 0 235 0 235
96 0 95 0 -3 43 -3 42 -232 3 -233 2 0 -44z"/>
<path d="M3900 4411 l0 -281 45 0 45 0 0 75 0 75 73 0 c141 0 228 71 235 194
4 76 -24 137 -87 181 -41 29 -46 30 -177 33 l-134 4 0 -281z m233 178 c80 -22
101 -125 37 -181 -25 -23 -40 -28 -83 -28 -28 0 -62 -3 -74 -6 -23 -6 -23 -6
-23 110 l0 116 53 0 c28 0 69 -5 90 -11z"/>
<path d="M4360 4410 l0 -280 175 0 175 0 0 45 0 44 -127 3 -128 3 -3 68 -3 67
106 0 106 0 -3 48 -3 47 -100 5 -100 5 0 65 0 65 128 3 127 3 0 44 0 45 -175
0 -175 0 0 -280z"/>
<path d="M7450 4411 l0 -281 50 0 50 0 0 115 0 115 120 0 120 0 0 -115 0 -115
45 0 45 0 2 248 c1 136 2 261 2 277 1 29 0 30 -44 30 l-45 0 -3 -112 -3 -113
-82 0 c-45 0 -99 -3 -119 -6 l-37 -7 -3 119 -3 119 -47 3 -48 3 0 -280z"/>
<path d="M3943 3880 c-32 -13 -47 -47 -35 -75 11 -23 18 -27 75 -39 20 -5 27
-12 25 -24 -4 -23 -56 -29 -64 -8 -7 17 -44 22 -44 6 0 -24 41 -50 78 -50 47
0 62 14 62 57 0 35 -12 45 -73 58 -20 4 -27 11 -25 23 4 23 42 27 62 6 14 -13
20 -14 29 -5 9 10 6 18 -16 37 -30 26 -40 28 -74 14z"/>
<path d="M4123 3876 c-39 -18 -53 -43 -53 -94 0 -56 37 -92 95 -92 36 0 48 5
69 31 69 81 -14 197 -111 155z m87 -48 c11 -12 20 -31 20 -43 0 -29 -36 -65
-65 -65 -32 0 -65 33 -65 65 0 57 71 85 110 43z"/>
<path d="M4560 3883 c-56 -20 -83 -89 -56 -141 20 -38 44 -52 91 -52 42 0 96
43 76 63 -8 8 -17 5 -34 -11 -44 -42 -109 -16 -109 43 0 57 69 86 106 46 23
-25 50 -17 36 10 -19 34 -74 55 -110 42z"/>
<path d="M5770 3793 c0 -85 3 -103 15 -103 12 0 15 13 15 55 0 30 2 55 4 55 2
0 31 -28 65 -62 l61 -63 0 103 c0 95 -1 102 -20 102 -18 0 -20 -7 -20 -57 l0
-58 -60 65 -59 65 -1 -102z"/>
<path d="M7026 3798 c-20 -51 -36 -96 -36 -100 0 -14 31 -8 36 7 4 9 19 15 39
15 20 0 35 -6 39 -15 5 -15 36 -21 36 -7 0 10 -71 192 -75 192 -2 0 -20 -42
-39 -92z m54 -30 c0 -5 -7 -8 -15 -8 -17 0 -18 2 -9 25 5 13 8 14 15 3 5 -7 9
-16 9 -20z"/>
<path d="M7696 3869 c-50 -40 -24 -87 57 -104 20 -4 27 -11 25 -23 -4 -22 -51
-28 -68 -8 -13 17 -40 22 -40 8 0 -4 7 -18 16 -30 18 -27 84 -31 108 -6 32 32
7 94 -38 94 -9 0 -26 5 -37 11 -16 8 -18 13 -8 25 15 19 38 18 61 -3 15 -13
21 -14 31 -4 9 10 6 17 -16 37 -35 30 -56 30 -91 3z"/>
<path d="M3168 3864 c-83 -45 -54 -174 39 -174 42 0 83 23 83 46 0 20 -14 18
-35 -6 -26 -29 -69 -26 -94 6 -27 35 -27 65 2 92 29 27 68 28 92 2 17 -19 35
-19 35 1 0 12 -60 49 -80 49 -8 -1 -27 -7 -42 -16z"/>
<path d="M3488 3864 c-54 -29 -66 -107 -23 -149 56 -56 155 -18 155 60 0 47
-14 71 -50 90 -36 18 -47 18 -82 -1z m89 -36 c29 -27 29 -65 1 -95 -27 -29
-65 -29 -95 -1 -29 27 -29 65 -1 95 27 29 65 29 95 1z"/>
<path d="M3772 3808 c-44 -107 -46 -118 -27 -118 8 0 18 7 21 15 4 9 19 15 40
15 22 0 37 -6 40 -15 6 -15 34 -21 34 -7 0 15 -65 182 -72 182 -3 0 -20 -33
-36 -72z m48 -40 c0 -5 -6 -8 -14 -8 -9 0 -12 7 -9 21 4 16 8 17 14 7 5 -7 9
-16 9 -20z"/>
<path d="M4282 3788 c3 -79 6 -93 21 -96 13 -3 17 3 17 23 0 23 4 26 28 23 16
-2 31 -12 37 -25 15 -34 39 -30 31 5 -8 32 -8 35 0 85 9 56 -14 77 -83 77
l-54 0 3 -92z m101 41 c16 -26 1 -49 -33 -49 -28 0 -30 3 -30 36 0 32 2 35 26
32 15 -2 32 -10 37 -19z"/>
<path d="M4700 3811 c0 -88 22 -121 80 -121 58 0 80 33 80 121 0 55 -3 69 -15
69 -12 0 -15 -14 -15 -63 0 -67 -17 -97 -53 -97 -25 0 -49 44 -47 87 3 62 1
73 -15 73 -12 0 -15 -14 -15 -69z"/>
<path d="M4890 3785 l0 -95 60 0 c46 0 60 3 60 14 0 10 -14 16 -42 18 l-43 3
-3 78 c-2 59 -6 77 -17 77 -12 0 -15 -18 -15 -95z"/>
<path d="M4990 3865 c0 -10 10 -15 30 -15 l30 0 0 -80 c0 -64 3 -80 15 -80 12
0 15 16 15 80 l0 80 36 0 c24 0 34 4 32 13 -3 8 -31 13 -81 15 -64 2 -77 0
-77 -13z"/>
<path d="M5167 3873 c-13 -12 -7 -114 8 -142 16 -32 33 -41 76 -41 51 0 69 29
69 115 0 60 -3 75 -15 75 -12 0 -15 -14 -15 -68 0 -72 -10 -92 -45 -92 -35 0
-45 20 -45 92 0 50 -4 68 -13 68 -8 0 -17 -3 -20 -7z"/>
<path d="M5352 3788 c2 -75 6 -93 18 -93 8 0 16 10 18 23 5 32 49 30 64 -3 6
-14 17 -25 25 -25 16 0 17 32 1 48 -10 10 -10 17 0 32 36 58 -2 110 -78 110
l-51 0 3 -92z m92 46 c18 -18 18 -17 10 -38 -4 -10 -18 -16 -35 -16 -26 0 -29
3 -29 35 0 28 4 35 19 35 11 0 27 -7 35 -16z"/>
<path d="M5520 3785 l0 -96 57 3 c71 4 88 28 19 28 -42 0 -46 2 -46 25 0 22 4
25 35 25 24 0 35 5 35 15 0 10 -11 15 -35 15 -31 0 -35 3 -35 25 0 23 4 25 46
25 69 0 52 24 -19 28 l-57 3 0 -96z"/>
<path d="M5700 3785 c0 -88 1 -95 20 -95 19 0 20 7 20 95 0 88 -1 95 -20 95
-19 0 -20 -7 -20 -95z"/>
<path d="M5940 3865 c0 -10 11 -15 35 -15 l35 0 0 -80 c0 -64 3 -80 15 -80 12
0 15 16 15 80 l0 80 30 0 c20 0 30 5 30 15 0 12 -16 15 -80 15 -64 0 -80 -3
-80 -15z"/>
<path d="M6180 3785 l0 -95 60 0 c47 0 60 3 60 15 0 11 -12 15 -45 15 l-45 0
0 80 c0 64 -3 80 -15 80 -12 0 -15 -17 -15 -95z"/>
<path d="M6450 3785 c0 -78 3 -95 15 -95 12 0 15 17 15 95 0 78 -3 95 -15 95
-12 0 -15 -17 -15 -95z"/>
<path d="M6510 3784 c0 -86 2 -95 18 -92 12 2 17 14 19 43 1 22 2 47 3 55 0 9
26 -12 60 -50 l60 -65 0 103 c0 84 -3 102 -15 102 -12 0 -15 -13 -15 -55 0
-30 -2 -55 -4 -55 -3 0 -28 25 -57 55 -28 30 -56 55 -60 55 -5 0 -9 -43 -9
-96z"/>
<path d="M6700 3786 c0 -79 3 -96 15 -96 12 0 15 16 16 75 1 41 2 83 3 92 0
10 -7 19 -16 21 -16 3 -18 -6 -18 -92z"/>
<path d="M6757 3874 c-12 -12 4 -24 34 -24 l29 0 0 -80 c0 -64 3 -80 15 -80
12 0 15 16 15 80 l0 80 30 0 c20 0 30 5 30 15 0 12 -15 15 -73 15 -41 0 -77
-3 -80 -6z"/>
<path d="M6930 3784 c0 -86 2 -95 18 -92 14 3 17 17 20 96 3 87 2 92 -18 92
-19 0 -20 -6 -20 -96z"/>
<path d="M7120 3865 c0 -10 10 -15 30 -15 l30 0 0 -81 c0 -71 2 -80 18 -77 14
3 17 16 20 81 l3 77 29 0 c20 0 30 5 30 15 0 12 -16 15 -80 15 -64 0 -80 -3
-80 -15z"/>
<path d="M7300 3785 c0 -78 3 -95 15 -95 12 0 15 17 15 95 0 78 -3 95 -15 95
-12 0 -15 -17 -15 -95z"/>
<path d="M7353 3868 c3 -7 20 -50 38 -95 17 -46 35 -83 40 -83 6 0 79 171 79
185 0 3 -7 5 -16 5 -9 0 -24 -20 -36 -50 -11 -27 -24 -50 -27 -50 -4 0 -15 23
-26 50 -14 35 -25 50 -38 50 -11 0 -17 -5 -14 -12z"/>
<path d="M7530 3785 l0 -95 60 0 c47 0 60 3 60 15 0 11 -11 15 -39 15 -22 0
-42 4 -45 9 -12 19 7 41 35 41 19 0 29 5 29 15 0 10 -10 15 -30 15 -25 0 -30
4 -30 25 0 23 4 25 40 25 29 0 40 4 40 15 0 12 -13 15 -60 15 l-60 0 0 -95z"/>
<path d="M3310 3780 l0 -90 55 0 c30 0 55 5 55 10 0 6 -18 10 -40 10 -38 0
-40 2 -40 30 0 27 3 30 30 30 17 0 30 5 30 10 0 6 -13 10 -30 10 -27 0 -30 3
-30 30 0 28 2 30 40 30 22 0 40 5 40 10 0 6 -25 10 -55 10 l-55 0 0 -90z"/>
<path d="M6122 3840 c1 -37 22 -34 26 3 2 19 -1 27 -12 27 -10 0 -14 -10 -14
-30z"/>
<path d="M6331 3716 c-8 -10 -8 -16 3 -25 10 -9 16 -8 26 3 12 15 6 36 -9 36
-5 0 -14 -6 -20 -14z"/>
<path d="M3650 3689 c0 -11 5 -17 10 -14 6 3 10 13 10 21 0 8 -4 14 -10 14 -5
0 -10 -9 -10 -21z"/>
</g>
</svg>
